<?xml version="1.0" encoding="UTF-8" standalone="no"?>
<svg width="400px" height="464px" viewBox="0 0 400 464" version="1.1" xmlns="http://www.w3.org/2000/svg" xmlns:xlink="http://www.w3.org/1999/xlink" xmlns:sketch="http://www.bohemiancoding.com/sketch/ns">
    <title>Code</title>
    <description>Created with Sketch (http://www.bohemiancoding.com/sketch)</description>
    <defs></defs>
    <g id="Page 1" stroke="none" stroke-width="1" fill="none" fill-rule="evenodd">
        <g id="Code">
            <g id="Frame Code">
                <path d="M0,13.172949 L0,455.17137 C0,459.59052 3.58020589,463.172949 7.99015164,463.172949 L392.009848,463.172949 C396.422687,463.172949 400,459.583556 400,455.17137 L400,13.172949 L0,13.172949 Z M0,13.172949" id="Frame - Border" fill="#26292C"></path>
                <path d="M7.99015164,0 C3.57731274,0 0,3.58189046 0,7.99609797 L0,25 L400,25 L400,7.99609797 C400,3.579975 396.419794,0 392.009848,0 L7.99015164,0 Z M7.99015164,0" id="Top Menu - Close - Minimize - Maximize" fill="#F1F1F1"></path>
                <path d="M15.6962025,19.2527716 C19.3314947,19.2527716 22.278481,16.3039067 22.278481,12.6662971 C22.278481,9.02868752 19.3314947,6.07982262 15.6962025,6.07982262 C12.0609103,6.07982262 9.11392405,9.02868752 9.11392405,12.6662971 C9.11392405,16.3039067 12.0609103,19.2527716 15.6962025,19.2527716 Z M15.6962025,19.2527716" id="Close" fill="#DF6963"></path>
                <path d="M36.9620253,19.2527716 C40.5973175,19.2527716 43.5443038,16.3039067 43.5443038,12.6662971 C43.5443038,9.02868752 40.5973175,6.07982262 36.9620253,6.07982262 C33.3267331,6.07982262 30.3797468,9.02868752 30.3797468,12.6662971 C30.3797468,16.3039067 33.3267331,19.2527716 36.9620253,19.2527716 Z M36.9620253,19.2527716" id="Minimize" fill="#F5E18A"></path>
                <path d="M58.2278481,19.2527716 C61.8631403,19.2527716 64.8101266,16.3039067 64.8101266,12.6662971 C64.8101266,9.02868752 61.8631403,6.07982262 58.2278481,6.07982262 C54.5925559,6.07982262 51.6455696,9.02868752 51.6455696,12.6662971 C51.6455696,16.3039067 54.5925559,19.2527716 58.2278481,19.2527716 Z M58.2278481,19.2527716" id="Maximize" fill="#97C38A"></path>
            </g>
            <g transform="translate(11.000000, 38.000000)">
                <path d="M0,0 L0,10 L45,10 L45,0 L0,0 Z M0,0" id="Divs ^" fill="#C11B0A"></path>
                <path d="M0,20 L0,30 L58,30 L58,20 L0,20 Z M0,20" id="Rectangle 3 copy" fill="#C11B0A"></path>
                <path d="M152,20 L152,30 L186,30 L186,20 L152,20 Z M152,20" id="Rectangle 3 copy 2" fill="#C11B0A"></path>
                <path d="M171,60 L171,70 L205,70 L205,60 L171,60 Z M171,60" id="Rectangle 3 copy 3" fill="#C11B0A"></path>
                <path d="M0,40 L0,50 L48,50 L48,40 L0,40 Z M0,40" id="Rectangle 3 copy 2" fill="#C11B0A"></path>
                <path d="M20,60 L20,70 L68,70 L68,60 L20,60 Z M20,60" id="Rectangle 3 copy 3" fill="#C11B0A"></path>
                <path d="M20,280 L20,290 L68,290 L68,280 L20,280 Z M20,280" id="Rectangle 3 copy 4" fill="#C11B0A"></path>
                <path d="M20,380 L20,390 L68,390 L68,380 L20,380 Z M20,380" id="Rectangle 3 copy 4" fill="#C11B0A"></path>
                <path d="M40,80 L40,90 L88,90 L88,80 L40,80 Z M40,80" id="Rectangle 3 copy 3" fill="#C11B0A"></path>
                <path d="M40,120 L40,130 L88,130 L88,120 L40,120 Z M40,120" id="Rectangle 3 copy 4" fill="#C11B0A"></path>
                <path d="M244,80 L244,90 L278,90 L278,80 L244,80 Z M244,80" id="Rectangle 3 copy 4" fill="#C11B0A"></path>
                <path d="M40,400 L40,410 L88,410 L88,400 L40,400 Z M40,400" id="Rectangle 3 copy 4" fill="#C11B0A"></path>
                <path d="M194,400 L194,410 L228,410 L228,400 L194,400 Z M194,400" id="Rectangle 3 copy 5" fill="#C11B0A"></path>
                <path d="M40,100 L40,110 L91,110 L91,100 L40,100 Z M40,100" id="Rectangle 3 copy 4" fill="#C11B0A"></path>
                <path d="M311,100 L311,110 L345,110 L345,100 L311,100 Z M311,100" id="Rectangle 3 copy 5" fill="#C11B0A"></path>
                <path d="M40,240 L40,250 L74,250 L74,240 L40,240 Z M40,240" id="Rectangle 3 copy 6" fill="#C11B0A"></path>
                <path d="M20,360 L20,370 L54,370 L54,360 L20,360 Z M20,360" id="Rectangle 3 copy 7" fill="#C11B0A"></path>
                <path d="M20,260 L20,270 L54,270 L54,260 L20,260 Z M20,260" id="Rectangle 3 copy 7" fill="#C11B0A"></path>
                <path d="M40,300 L40,310 L74,310 L74,300 L40,300 Z M40,300" id="Rectangle 3 copy 8" fill="#C11B0A"></path>
                <path d="M257,300 L257,310 L277,310 L277,300 L257,300 Z M257,300" id="Rectangle 3 copy 9" fill="#C11B0A"></path>
                <path d="M40,340 L40,350 L74,350 L74,340 L40,340 Z M40,340" id="Rectangle 3 copy 9" fill="#C11B0A"></path>
                <path d="M231,340 L231,350 L251,350 L251,340 L231,340 Z M231,340" id="Rectangle 3 copy 10" fill="#C11B0A"></path>
                <path d="M40,320 L40,330 L74,330 L74,320 L40,320 Z M40,320" id="Rectangle 3 copy 9" fill="#C11B0A"></path>
                <path d="M335,320 L335,330 L355,330 L355,320 L335,320 Z M335,320" id="Rectangle 3 copy 10" fill="#C11B0A"></path>
                <path d="M98,80 L98,90 L138,90 L138,80 L98,80 Z M98,80" id="Classes ^" fill="#27AE60"></path>
                <path d="M98,120 L98,130 L138,130 L138,120 L98,120 Z M98,120" id="Rectangle 3 copy 5" fill="#27AE60"></path>
                <path d="M101,100 L101,110 L131,110 L131,100 L101,100 Z M101,100" id="Rectangle 3 copy 5" fill="#27AE60"></path>
                <path d="M84,300 L84,310 L109,310 L109,300 L84,300 Z M84,300" id="Rectangle 3 copy 6" fill="#27AE60"></path>
                <path d="M84,340 L84,350 L109,350 L109,340 L84,340 Z M84,340" id="Rectangle 3 copy 7" fill="#27AE60"></path>
                <path d="M84,320 L84,330 L109,330 L109,320 L84,320 Z M84,320" id="Rectangle 3 copy 7" fill="#27AE60"></path>
                <path d="M80,60 L80,70 L161,70 L161,60 L80,60 Z M80,60" id="IDs^" fill="#2980B9"></path>
                <path d="M80,380 L80,390 L161,390 L161,380 L80,380 Z M80,380" id="Rectangle 3 copy 5" fill="#2980B9"></path>
                <path d="M80,280 L80,290 L135,290 L135,280 L80,280 Z M80,280" id="Rectangle 3 copy 5" fill="#2980B9"></path>
                <path d="M119,300 L119,310 L156,310 L156,300 L119,300 Z M119,300" id="Rectangle 3 copy 6" fill="#2980B9"></path>
                <path d="M119,340 L119,350 L156,350 L156,340 L119,340 Z M119,340" id="Rectangle 3 copy 7" fill="#2980B9"></path>
                <path d="M119,320 L119,330 L156,330 L156,320 L119,320 Z M119,320" id="Rectangle 3 copy 7" fill="#2980B9"></path>
                <path d="M148,80 L148,90 L234,90 L234,80 L148,80 Z M148,80" id="Text ^" fill="#BDC3C7"></path>
                <path d="M98,400 L98,410 L184,410 L184,400 L98,400 Z M98,400" id="Rectangle 3 copy 6" fill="#BDC3C7"></path>
                <path d="M141,100 L141,110 L301,110 L301,100 L141,100 Z M141,100" id="Rectangle 3 copy 6" fill="#BDC3C7"></path>
                <path d="M60,140 L60,150 L148,150 L148,140 L60,140 Z M60,140" id="Rectangle 3 copy 7" fill="#BDC3C7"></path>
                <path d="M166,300 L166,310 L247,310 L247,300 L166,300 Z M166,300" id="Rectangle 3 copy 8" fill="#BDC3C7"></path>
                <path d="M166,340 L166,350 L221,350 L221,340 L166,340 Z M166,340" id="Rectangle 3 copy 9" fill="#BDC3C7"></path>
                <path d="M166,320 L166,330 L325,330 L325,320 L166,320 Z M166,320" id="Rectangle 3 copy 9" fill="#BDC3C7"></path>
                <path d="M60,160 L60,170 L355,170 L355,160 L60,160 Z M60,160" id="Rectangle 3 copy 8" fill="#BDC3C7"></path>
                <path d="M60,180 L60,190 L355,190 L355,180 L60,180 Z M60,180" id="Rectangle 3 copy 9" fill="#BDC3C7"></path>
                <path d="M60,200 L60,210 L355,210 L355,200 L60,200 Z M60,200" id="Rectangle 3 copy 10" fill="#BDC3C7"></path>
                <path d="M60,220 L60,230 L234,230 L234,220 L60,220 Z M60,220" id="Rectangle 3 copy 11" fill="#BDC3C7"></path>
                <path d="M68,20 L68,30 L142,30 L142,20 L68,20 Z M68,20" id="Rectangle 3 copy 6" fill="#BDC3C7"></path>
            </g>
        </g>
    </g>
</svg>