<?xml version="1.0" encoding="UTF-8" standalone="no"?>
<svg width="1005px" height="546px" viewBox="0 0 1005 546" version="1.1" xmlns="http://www.w3.org/2000/svg" xmlns:xlink="http://www.w3.org/1999/xlink" xmlns:sketch="http://www.bohemiancoding.com/sketch/ns">
    <title>MBP</title>
    <description>Created with Sketch (http://www.bohemiancoding.com/sketch)</description>
    <defs></defs>
    <g id="Page-1" stroke="none" stroke-width="1" fill="none" fill-rule="evenodd" sketch:type="MSPage">
        <g id="Macbook-Pro" sketch:type="MSLayerGroup" transform="translate(-4497.000000, -2435.000000)" stroke="#4990E2">
            <rect id="Rectangle" stroke-width="2" sketch:type="MSShapeGroup" x="4646" y="2468" width="706.862378" height="438.618461"></rect>
            <path d="M5499.63448,2969.41385 C5499.63448,2969.88 5499.25747,2970.25615 5498.8023,2970.25615 L4500.83448,2970.25615 C4500.37241,2970.25615 4500,2969.88 4500,2969.41385 L4500,2940.84231 C4500,2940.38308 4500.37471,2940 4500.83448,2940 L5498.8023,2940 C5499.25747,2940 5499.63448,2940.38308 5499.63448,2940.84231 L5499.63448,2969.41385 L5499.63448,2969.41385 Z" id="Shape" stroke-width="2" sketch:type="MSShapeGroup"></path>
            <path d="M5384.7519,2468.11339 C5384.7519,2451.48224 5371.25212,2438 5354.60905,2438 L4646.14745,2438 C4629.49978,2438 4616,2451.48224 4616,2468.11339 L4616,2939.87916 L5384.7496,2939.87916 L5384.7496,2468.11339 L5384.7519,2468.11339 L5384.7519,2468.11339 Z" id="Shape" stroke-width="2" sketch:type="MSShapeGroup"></path>
            <path d="M4502,2970 C4504.8793,2974.73625 4513.81821,2978.1945 4524.42082,2978.1945 L5474.71706,2978.1945 C5485.31507,2978.1945 5494.25858,2974.7385 5497.13788,2970 L4502,2970 L4502,2970 Z" id="Shape" stroke-width="2" sketch:type="MSShapeGroup"></path>
            <path d="M4935.22014,2940 C4935.0986,2940.71314 4935,2941.43771 4935,2942.18057 C4935,2949.25029 4940.7534,2954.98743 4947.84597,2954.98743 L5054.01666,2954.98743 C5061.11381,2954.98743 5066.86033,2949.25029 5066.86033,2942.18057 C5066.86033,2941.43771 5066.76631,2940.71314 5066.64019,2940 L4935.22014,2940 L4935.22014,2940 Z" id="Shape" stroke-width="2" sketch:type="MSShapeGroup"></path>
            <rect id="Rectangle" stroke-width="2.29885057" sketch:type="MSShapeGroup" x="5417" y="2956" width="33.8543333" height="2.852"></rect>
        </g>
    </g>
</svg>