<?xml version="1.0" encoding="UTF-8" standalone="no"?>
<svg width="614px" height="1270px" viewBox="0 0 614 1270" version="1.1" xmlns="http://www.w3.org/2000/svg" xmlns:xlink="http://www.w3.org/1999/xlink" xmlns:sketch="http://www.bohemiancoding.com/sketch/ns">
    <title>iPhone</title>
    <description>Created with Sketch (http://www.bohemiancoding.com/sketch)</description>
    <defs></defs>
    <g id="Page-1" stroke="none" stroke-width="1" fill="none" fill-rule="evenodd" sketch:type="MSPage">
        <g id="iPhone" sketch:type="MSLayerGroup" transform="translate(4.000000, 3.000000)" stroke="#4990E2" stroke-width="6">
            <path d="M64.36,1263.87 C28.72,1263.87 -0.17,1234.98 -0.17,1199.325 L-0.17,64.695 C-0.17,29.04 28.72,0.135 64.36,0.135 L541.48,0.135 C577.12,0.135 606.025,29.04 606.025,64.695 L606.025,1199.325 C606.025,1234.98 577.12,1263.87 541.48,1263.87 L64.36,1263.87 Z" id="Shape" sketch:type="MSShapeGroup"></path>
            <path d="M306.91,78 C298.675433,78 292,84.6754339 292,92.91 C292,101.144566 298.675433,107.82 306.91,107.82 C315.144566,107.82 321.82,101.144566 321.82,92.91 C321.82,84.6754339 315.144566,78 306.91,78 Z" id="Oval" sketch:type="MSShapeGroup"></path>
            <path d="M300.31,1113 C270.867699,1113 247,1136.8677 247,1166.31 C247,1195.7523 270.867699,1219.62 300.31,1219.62 C329.752301,1219.62 353.62,1195.7523 353.62,1166.31 C353.62,1136.8677 329.752301,1113 300.31,1113 Z" id="Oval" sketch:type="MSShapeGroup"></path>
            <path d="M563.68,1077.375 L563.68,183 L37,183 L37,1077.375 L563.68,1077.375 Z" id="Rectangle" sketch:type="MSShapeGroup"></path>
        </g>
    </g>
</svg>