<?xml version="1.0" encoding="UTF-8" standalone="no"?>
<svg width="400px" height="464px" viewBox="0 0 400 464" version="1.1" xmlns="http://www.w3.org/2000/svg" xmlns:xlink="http://www.w3.org/1999/xlink" xmlns:sketch="http://www.bohemiancoding.com/sketch/ns">
    <title>Research</title>
    <description>Created with Sketch (http://www.bohemiancoding.com/sketch)</description>
    <defs></defs>
    <g id="Page 1" stroke="none" stroke-width="1" fill="none" fill-rule="evenodd">
        <g id="Research">
            <g id="Frame Research">
                <path d="M0,13.172949 L0,455.17137 C0,459.59052 3.58020589,463.172949 7.99015164,463.172949 L392.009848,463.172949 C396.422687,463.172949 400,459.583556 400,455.17137 L400,13.172949 L0,13.172949 Z M0,13.172949" id="Frame - Border" fill="#D4D4D4"></path>
                <path d="M7.99015164,0 C3.57731274,0 0,3.58189046 0,7.99609797 L0,25 L400,25 L400,7.99609797 C400,3.579975 396.419794,0 392.009848,0 L7.99015164,0 Z M7.99015164,0" id="Top Menu - Close - Minimize - Maximize" fill="#F1F1F1"></path>
                <path d="M15.6962025,19.2527716 C19.3314947,19.2527716 22.278481,16.3039067 22.278481,12.6662971 C22.278481,9.02868752 19.3314947,6.07982262 15.6962025,6.07982262 C12.0609103,6.07982262 9.11392405,9.02868752 9.11392405,12.6662971 C9.11392405,16.3039067 12.0609103,19.2527716 15.6962025,19.2527716 Z M15.6962025,19.2527716" id="Close" fill="#DF6963"></path>
                <path d="M36.9620253,19.2527716 C40.5973175,19.2527716 43.5443038,16.3039067 43.5443038,12.6662971 C43.5443038,9.02868752 40.5973175,6.07982262 36.9620253,6.07982262 C33.3267331,6.07982262 30.3797468,9.02868752 30.3797468,12.6662971 C30.3797468,16.3039067 33.3267331,19.2527716 36.9620253,19.2527716 Z M36.9620253,19.2527716" id="Minimize" fill="#F5E18A"></path>
                <path d="M58.2278481,19.2527716 C61.8631403,19.2527716 64.8101266,16.3039067 64.8101266,12.6662971 C64.8101266,9.02868752 61.8631403,6.07982262 58.2278481,6.07982262 C54.5925559,6.07982262 51.6455696,9.02868752 51.6455696,12.6662971 C51.6455696,16.3039067 54.5925559,19.2527716 58.2278481,19.2527716 Z M58.2278481,19.2527716" id="Maximize" fill="#97C38A"></path>
            </g>
            <g id="Research Elements" transform="translate(0.000000, 25.000000)">
                <path d="M0,0 L0,28 L400,28 L400,0 L0,0 Z M0,0" id="Rectangle 74" fill="#444444"></path>
                <path d="M9,9 L9,19 L54,19 L54,9 L9,9 Z M9,9" id="Rectangle 75" fill="#D8D8D8"></path>
                <path d="M64,9 L64,19 L109,19 L109,9 L64,9 Z M64,9" id="Rectangle 75 copy" fill="#D8D8D8"></path>
                <path d="M119,9 L119,19 L164,19 L164,9 L119,9 Z M119,9" id="Rectangle 75 copy 2" fill="#D8D8D8"></path>
                <path d="M174,9 L174,19 L219,19 L219,9 L174,9 Z M174,9" id="Rectangle 75 copy" fill="#D8D8D8"></path>
                <path d="M229,9 L229,19 L274,19 L274,9 L229,9 Z M229,9" id="Rectangle 75 copy 2" fill="#D8D8D8"></path>
                <path d="M284,9 L284,19 L329,19 L329,9 L284,9 Z M284,9" id="Rectangle 75 copy 3" fill="#D8D8D8"></path>
                <path d="M9,39 L9,59 L109,59 L109,39 L9,39 Z M9,39" id="Rectangle 81" fill="#E74C3C"></path>
                <path d="M339,39 L339,59 L389,59 L389,39 L339,39 Z M339,39" id="Rectangle 81 copy" fill="#2980B9"></path>
                <path d="M119,39 L119,59 L329,59 L329,39 L119,39 Z M119,39" id="Rectangle 81 copy" fill="#FFFFFF"></path>
                <path d="M124,44 L124,54 L239,54 L239,44 L124,44 Z M124,44" id="Rectangle 75 copy 3" fill="#D8D8D8"></path>
                <path d="M39,89 L39,99 L123,99 L123,89 L39,89 Z M39,89" id="Rectangle 81 copy 2" fill="#2980B9"></path>
                <path d="M39,121 L39,131 L339,131 L339,121 L39,121 Z M39,121" id="Rectangle 75 copy 4" fill="#FFFFFF"></path>
                <path d="M39,137 L39,147 L339,147 L339,137 L39,137 Z M39,137" id="Rectangle 75 copy 5" fill="#FFFFFF"></path>
                <path d="M39,105 L39,115 L204,115 L204,105 L39,105 Z M39,105" id="Rectangle 75 copy 4" fill="#27AE60"></path>
                <path d="M39,169 L39,179 L123,179 L123,169 L39,169 Z M39,169" id="Rectangle 81 copy 3" fill="#2980B9"></path>
                <path d="M39,201 L39,211 L339,211 L339,201 L39,201 Z M39,201" id="Rectangle 75 copy 5" fill="#FFFFFF"></path>
                <path d="M39,217 L39,227 L339,227 L339,217 L39,217 Z M39,217" id="Rectangle 75 copy 6" fill="#FFFFFF"></path>
                <path d="M39,185 L39,195 L204,195 L204,185 L39,185 Z M39,185" id="Rectangle 75 copy 5" fill="#27AE60"></path>
                <path d="M39,249 L39,259 L123,259 L123,249 L39,249 Z M39,249" id="Rectangle 81 copy 4" fill="#2980B9"></path>
                <path d="M39,281 L39,291 L339,291 L339,281 L39,281 Z M39,281" id="Rectangle 75 copy 6" fill="#FFFFFF"></path>
                <path d="M39,297 L39,307 L339,307 L339,297 L39,297 Z M39,297" id="Rectangle 75 copy 7" fill="#FFFFFF"></path>
                <path d="M39,265 L39,275 L204,275 L204,265 L39,265 Z M39,265" id="Rectangle 75 copy 6" fill="#27AE60"></path>
                <path d="M39,329 L39,339 L123,339 L123,329 L39,329 Z M39,329" id="Rectangle 81 copy 5" fill="#2980B9"></path>
                <path d="M39,361 L39,371 L339,371 L339,361 L39,361 Z M39,361" id="Rectangle 75 copy 7" fill="#FFFFFF"></path>
                <path d="M39,377 L39,387 L339,387 L339,377 L39,377 Z M39,377" id="Rectangle 75 copy 8" fill="#FFFFFF"></path>
                <path d="M39,345 L39,355 L204,355 L204,345 L39,345 Z M39,345" id="Rectangle 75 copy 7" fill="#27AE60"></path>
            </g>
        </g>
    </g>
</svg>